<?xml version="1.0" standalone="no"?>
<!DOCTYPE svg PUBLIC "-//W3C//DTD SVG 20010904//EN"
 "http://www.w3.org/TR/2001/REC-SVG-20010904/DTD/svg10.dtd">
<svg version="1.0" xmlns="http://www.w3.org/2000/svg"
 width="600.000000pt" height="311.000000pt" viewBox="0 0 600.000000 311.000000"
 preserveAspectRatio="xMidYMid meet">
<g transform="translate(0.000000,311.000000) scale(0.100000,-0.100000)"
fill="#000000" stroke="none">
<path d="M3193 2655 c-3 -9 -4 -17 -2 -18 25 -16 82 -36 90 -32 17 11 9 21
-36 43 -40 19 -46 20 -52 7z"/>
<path d="M3077 2633 c-13 -12 -7 -23 13 -23 11 0 20 -3 20 -7 0 -5 -107 -56
-238 -115 -130 -59 -352 -160 -492 -224 -567 -259 -1210 -552 -1462 -667 -186
-84 -268 -126 -268 -137 0 -12 310 -137 1188 -480 653 -255 1208 -471 1234
-480 46 -16 54 -30 16 -30 -19 0 -24 -15 -8 -25 9 -6 53 4 93 20 12 5 17 2 17
-8 0 -14 5 -14 43 1 52 20 51 18 44 36 -5 13 -11 13 -47 -1 -22 -9 -41 -14
-43 -12 -2 2 -15 24 -31 48 -21 32 -31 40 -39 32 -9 -9 -8 -17 2 -33 11 -17
11 -20 -1 -15 -80 35 -2396 937 -2405 937 -7 0 -13 5 -13 10 0 6 4 10 9 10 5
0 142 60 303 134 161 73 679 310 1152 525 472 216 881 403 909 417 61 29 60
29 47 3 -7 -11 -9 -23 -6 -26 11 -11 32 6 54 45 21 39 22 41 5 50 -26 13 -88
23 -96 15z"/>
<path d="M3307 2597 c-8 -20 83 -63 94 -45 6 9 -4 20 -34 35 -50 26 -53 27
-60 10z"/>
<path d="M3427 2537 c-5 -15 76 -61 87 -50 13 13 5 23 -34 43 -47 24 -46 24
-53 7z"/>
<path d="M3090 2490 c-6 -11 -8 -20 -6 -20 3 0 10 9 16 20 6 11 8 20 6 20 -3
0 -10 -9 -16 -20z"/>
<path d="M3545 2479 c-8 -13 -9 -12 42 -37 35 -18 42 -19 47 -7 3 10 -8 21
-34 35 -46 23 -47 23 -55 9z"/>
<path d="M3666 2432 c-15 -14 -2 -30 38 -49 39 -19 45 -20 50 -6 4 9 5 16 4
17 -2 1 -22 11 -45 22 -23 12 -44 19 -47 16z"/>
<path d="M3780 2365 c-9 -11 -3 -18 29 -34 46 -24 61 -26 61 -8 0 6 -18 22
-40 33 -32 18 -41 20 -50 9z"/>
<path d="M1950 2286 c0 -36 5 -60 16 -70 19 -19 45 -21 63 -3 11 10 14 10 18
0 3 -7 11 -13 19 -13 11 0 14 16 14 70 0 63 -2 70 -19 70 -17 0 -20 -8 -23
-52 -3 -45 -6 -53 -23 -53 -17 0 -20 8 -23 53 -3 44 -6 52 -23 52 -16 0 -19
-7 -19 -54z"/>
<path d="M2705 2331 c-3 -5 -2 -12 3 -15 5 -3 9 1 9 9 0 17 -3 19 -12 6z"/>
<path d="M3896 2305 c-6 -17 67 -60 84 -50 19 12 10 25 -30 45 -47 24 -46 24
-54 5z"/>
<path d="M4017 2253 c-14 -13 -6 -23 33 -43 39 -20 60 -20 60 0 0 5 -19 19
-42 30 -48 23 -43 22 -51 13z"/>
<path d="M4137 2194 c-14 -14 -6 -24 33 -44 47 -24 46 -24 54 -5 4 10 -6 20
-32 32 -20 9 -40 18 -43 20 -3 2 -8 0 -12 -3z"/>
<path d="M4247 2128 c-4 -13 72 -59 86 -51 17 10 5 30 -28 46 -43 20 -52 21
-58 5z"/>
<path d="M4366 2073 c-4 -9 -5 -16 -4 -17 2 -1 22 -11 45 -22 36 -19 43 -20
48 -6 7 18 10 15 -42 40 -37 19 -42 20 -47 5z"/>
<path d="M4483 2015 c-3 -9 -4 -17 -2 -18 25 -16 82 -36 90 -32 17 11 9 21
-36 43 -40 19 -46 20 -52 7z"/>
<path d="M4604 1955 c-4 -9 -5 -17 -3 -18 2 -2 22 -11 43 -20 31 -14 41 -15
47 -5 4 7 7 13 6 14 -1 1 -21 11 -45 23 -37 19 -43 20 -48 6z"/>
<path d="M4717 1897 c-8 -21 78 -60 92 -43 8 9 -1 18 -35 34 -53 26 -50 26
-57 9z"/>
<path d="M4835 1840 c-8 -14 -10 -13 41 -38 23 -12 44 -18 48 -15 14 15 4 30
-31 43 -21 8 -41 16 -45 18 -3 2 -9 -2 -13 -8z"/>
<path d="M4955 1782 c-7 -18 -10 -15 42 -40 37 -19 42 -20 47 -5 4 9 5 16 4
17 -2 1 -22 11 -45 22 -36 19 -43 20 -48 6z"/>
<path d="M5077 1733 c-16 -15 -4 -31 34 -48 34 -16 42 -17 49 -5 7 11 0 18
-22 27 -18 8 -37 18 -43 23 -7 5 -15 7 -18 3z"/>
<path d="M5186 1665 c-4 -10 7 -21 34 -35 46 -24 60 -25 60 -6 0 8 -18 23 -40
35 -48 25 -46 25 -54 6z"/>
<path d="M1150 1610 c-9 -6 -10 -10 -3 -10 6 0 15 5 18 10 8 12 4 12 -15 0z"/>
<path d="M5307 1614 c-4 -4 -7 -11 -7 -15 0 -13 79 -51 90 -44 19 12 10 25
-27 42 -21 9 -41 18 -44 20 -3 2 -8 0 -12 -3z"/>
<path d="M5415 1610 c-3 -5 -1 -18 5 -29 14 -27 2 -51 -26 -51 -16 0 -24 -6
-24 -16 0 -14 8 -16 47 -10 26 3 51 10 56 15 9 9 -32 101 -44 101 -4 0 -11 -4
-14 -10z"/>
<path d="M619 1563 c-13 -16 -12 -17 4 -4 9 7 17 15 17 17 0 8 -8 3 -21 -13z"/>
<path d="M446 1527 c-46 -47 -30 -138 29 -157 70 -23 124 29 112 107 -8 47
-25 63 -75 70 -34 5 -44 1 -66 -20z m88 -23 c19 -18 21 -75 4 -92 -7 -7 -21
-12 -33 -12 -30 0 -45 19 -45 56 0 34 21 64 45 64 7 0 21 -7 29 -16z"/>
<path d="M5127 1523 c-14 -13 -6 -24 26 -39 30 -14 50 -51 22 -40 -6 2 -22 -4
-36 -14 -18 -14 -21 -22 -13 -30 9 -9 22 -4 52 17 23 15 41 33 42 40 0 6 -18
25 -39 42 -42 33 -44 34 -54 24z"/>
<path d="M771 1471 c-7 -5 -11 -14 -7 -20 10 -16 4359 -16 4389 1 21 11 21 12
-13 20 -49 10 -4352 10 -4369 -1z"/>
<path d="M5370 1416 c0 -8 10 -16 23 -19 21 -3 21 -4 -5 -15 -18 -8 -26 -16
-22 -26 5 -12 10 -13 26 -5 24 13 35 5 20 -14 -12 -14 -7 -27 10 -27 9 0 58
75 58 89 0 10 -62 31 -92 31 -10 0 -18 -6 -18 -14z"/>
<path d="M3129 1373 c-1 -5 -2 -17 -3 -28 -1 -15 -7 -19 -23 -17 -16 2 -23 -2
-23 -12 0 -11 9 -16 26 -16 23 0 25 -3 20 -25 -5 -18 -2 -25 9 -25 9 0 15 9
15 25 0 20 5 25 25 25 16 0 25 6 25 16 0 12 -7 15 -25 12 -22 -5 -25 -2 -25
23 0 25 -17 42 -21 22z"/>
<path d="M2850 1311 c0 -33 6 -56 19 -72 17 -22 22 -23 50 -12 17 6 31 7 31 2
0 -5 7 -9 15 -9 12 0 15 14 15 70 0 63 -2 70 -19 70 -17 0 -20 -8 -23 -52 -3
-45 -6 -53 -23 -53 -17 0 -20 8 -23 53 -3 44 -6 52 -23 52 -16 0 -19 -7 -19
-49z"/>
<path d="M3284 1343 c47 -145 69 -156 108 -53 26 70 26 71 5 68 -16 -2 -25
-16 -38 -58 -9 -30 -17 -47 -18 -36 -2 47 -25 96 -43 96 -14 0 -18 -5 -14 -17z"/>
<path d="M5285 1342 c-50 -19 -49 -18 -42 -36 5 -14 11 -13 52 1 41 16 57 35
38 46 -5 2 -26 -3 -48 -11z"/>
<path d="M5162 1289 c-24 -10 -42 -24 -40 -30 4 -13 8 -13 58 2 22 7 40 18 40
25 0 22 -13 22 -58 3z"/>
<path d="M4885 1261 c-3 -5 -2 -12 3 -15 5 -3 9 1 9 9 0 17 -3 19 -12 6z"/>
<path d="M5045 1241 c-50 -18 -49 -17 -42 -35 5 -13 11 -13 49 1 54 21 51 19
41 35 -7 12 -14 12 -48 -1z"/>
<path d="M4925 1192 c-50 -19 -49 -18 -42 -36 5 -13 11 -13 49 1 54 21 51 19
41 36 -7 13 -13 13 -48 -1z"/>
<path d="M4798 1142 c-23 -10 -38 -24 -38 -34 0 -22 -1 -22 54 2 33 14 44 23
40 35 -7 18 -8 18 -56 -3z"/>
<path d="M1810 1106 c0 -2 7 -7 16 -10 8 -3 12 -2 9 4 -6 10 -25 14 -25 6z"/>
<path d="M4673 1090 c-31 -14 -41 -23 -37 -35 7 -19 3 -19 57 5 32 14 44 25
41 35 -7 18 -9 18 -61 -5z"/>
<path d="M4553 1039 c-29 -13 -40 -24 -37 -34 7 -18 3 -19 57 5 32 14 44 25
41 35 -7 18 -9 18 -61 -6z"/>
<path d="M4433 990 c-30 -13 -41 -24 -37 -34 8 -22 94 11 94 36 0 22 -4 22
-57 -2z"/>
<path d="M4315 942 c-50 -19 -47 -16 -39 -35 5 -14 10 -14 50 1 40 15 56 34
37 45 -5 2 -26 -3 -48 -11z"/>
<path d="M4195 892 c-50 -19 -47 -16 -40 -34 5 -13 11 -13 51 1 40 14 55 33
37 44 -5 3 -26 -2 -48 -11z"/>
<path d="M4075 842 c-50 -19 -49 -18 -42 -36 5 -12 12 -12 51 2 42 15 58 34
39 45 -5 3 -26 -2 -48 -11z"/>
<path d="M3955 792 c-50 -19 -49 -18 -42 -36 5 -13 12 -13 49 4 69 31 63 60
-7 32z"/>
<path d="M3828 742 c-35 -16 -48 -35 -30 -45 4 -2 26 4 49 15 29 13 40 23 37
33 -7 18 -8 18 -56 -3z"/>
<path d="M3708 693 c-25 -10 -38 -22 -38 -34 0 -23 -2 -23 53 1 32 14 44 25
41 35 -7 18 -8 18 -56 -2z"/>
<path d="M3583 640 c-31 -14 -41 -23 -37 -35 7 -19 3 -19 57 5 32 14 44 25 41
35 -7 18 -9 18 -61 -5z"/>
<path d="M2046 593 c13 -32 24 -64 24 -70 0 -12 50 -19 50 -8 0 2 11 34 25 70
l25 66 -22 -3 c-17 -2 -26 -15 -38 -58 l-16 -55 -13 58 c-11 49 -16 57 -36 57
l-23 0 24 -57z"/>
<path d="M3089 593 c-13 -16 -12 -17 4 -4 16 13 21 21 13 21 -2 0 -10 -8 -17
-17z"/>
<path d="M3465 592 c-22 -8 -41 -16 -43 -17 -1 -1 0 -9 3 -17 6 -14 11 -14 49
1 42 15 46 19 46 41 0 13 -6 12 -55 -8z"/>
<path d="M3345 542 c-50 -20 -48 -18 -38 -35 7 -12 14 -12 51 4 23 10 42 25
42 34 0 18 -3 18 -55 -3z"/>
<path d="M2145 511 c-3 -5 -2 -12 3 -15 5 -3 9 1 9 9 0 17 -3 19 -12 6z"/>
</g>
</svg>
