<?xml version="1.0" standalone="no"?>
<!DOCTYPE svg PUBLIC "-//W3C//DTD SVG 20010904//EN"
 "http://www.w3.org/TR/2001/REC-SVG-20010904/DTD/svg10.dtd">
<svg version="1.0" xmlns="http://www.w3.org/2000/svg"
 width="600.000000pt" height="438.000000pt" viewBox="0 0 600.000000 438.000000"
 preserveAspectRatio="xMidYMid meet">
<g transform="translate(0.000000,438.000000) scale(0.100000,-0.100000)"
fill="#000000" stroke="none">
<path d="M4287 3831 c-21 -3 -38 -9 -37 -13 0 -5 0 -13 0 -19 0 -7 12 -10 30
-7 37 6 37 -1 2 -27 -23 -16 -433 -368 -922 -789 -69 -59 -327 -282 -575 -494
-247 -213 -455 -391 -461 -397 -6 -5 -150 -129 -319 -275 -170 -146 -426 -366
-570 -490 -144 -124 -366 -314 -493 -424 -207 -178 -229 -200 -219 -217 11
-18 62 -19 1779 -19 1151 0 1776 3 1793 10 14 5 24 14 21 18 -3 5 1 9 9 9 8 0
16 -6 19 -13 3 -9 -1 -11 -11 -7 -12 5 -14 3 -8 -8 4 -8 5 -11 0 -7 -9 9 -65
-29 -65 -43 0 -5 6 -12 14 -15 15 -6 101 52 110 73 7 16 -99 97 -114 88 -17
-10 -11 -32 13 -48 20 -15 -103 -16 -1382 -16 -1258 -1 -1403 1 -1397 14 46
120 47 244 4 338 -15 31 -50 82 -79 112 l-52 55 28 22 c16 12 141 119 279 238
451 389 774 667 1191 1024 226 194 444 382 485 418 41 35 273 235 515 443 242
208 442 382 443 387 8 20 20 5 18 -24 -2 -54 27 -42 40 17 21 86 19 95 -18 94
-18 -1 -50 -5 -71 -8z m73 -36 c0 -2 -6 -5 -13 -8 -8 -3 -14 1 -14 8 0 7 6 11
14 8 7 -3 13 -6 13 -8z m-2895 -2753 c40 -81 44 -166 15 -265 l-23 -76 -344
-3 c-334 -3 -343 -2 -321 15 25 20 196 166 412 354 l141 122 46 -45 c26 -26
59 -71 74 -102z"/>
<path d="M4130 3526 c0 -2 8 -10 18 -17 15 -13 16 -12 3 4 -13 16 -21 21 -21
13z"/>
<path d="M3863 3485 c0 -8 4 -12 9 -9 5 3 6 10 3 15 -9 13 -12 11 -12 -6z"/>
<path d="M4337 3429 c-21 -28 -36 -57 -33 -65 8 -20 22 -17 43 9 21 26 61 25
81 -4 16 -23 31 -24 38 -4 6 15 -64 114 -81 114 -5 0 -27 -23 -48 -50z m63 -8
c0 -13 -2 -13 -9 -2 -7 11 -9 11 -14 0 -3 -8 -4 -4 -4 7 1 26 27 21 27 -5z"/>
<path d="M4265 3410 c-3 -6 1 -7 9 -4 18 7 21 14 7 14 -6 0 -13 -4 -16 -10z"/>
<path d="M4369 3347 c0 -1 -1 -30 -2 -65 -2 -59 -1 -62 21 -62 22 0 23 3 20
62 -2 49 -6 62 -20 64 -10 1 -18 2 -19 1z"/>
<path d="M2615 3223 c4 -10 18 -45 30 -78 18 -48 27 -61 46 -63 22 -3 27 5 52
71 15 40 27 76 27 78 0 3 -9 5 -20 5 -14 0 -24 -12 -35 -45 -8 -24 -15 -54
-16 -65 0 -12 -10 8 -22 43 -18 52 -26 65 -46 68 -19 3 -22 0 -16 -14z"/>
<path d="M4365 3115 c0 -61 1 -65 23 -65 21 0 22 4 22 65 0 61 -1 65 -22 65
-22 0 -23 -4 -23 -65z"/>
<path d="M4365 2945 c0 -61 1 -65 23 -65 21 0 22 4 22 65 0 61 -1 65 -22 65
-22 0 -23 -4 -23 -65z"/>
<path d="M3209 2923 c-12 -16 -12 -17 2 -6 9 7 20 9 24 5 5 -4 5 -1 1 6 -9 16
-11 15 -27 -5z"/>
<path d="M4385 2842 c-17 -6 -20 -16 -20 -64 0 -51 2 -57 22 -61 22 -4 23 -2
23 64 0 38 -1 69 -2 68 -2 -1 -12 -4 -23 -7z"/>
<path d="M4369 2675 c0 0 -1 -28 -2 -63 -2 -58 -1 -62 21 -62 20 0 22 4 22 63
0 56 -2 63 -20 63 -11 0 -20 0 -21 -1z"/>
<path d="M5017 2506 c-7 -18 1 -26 25 -26 13 0 18 6 16 17 -4 22 -34 29 -41 9z"/>
<path d="M4365 2445 c0 -61 1 -65 23 -65 21 0 22 4 22 65 0 61 -1 65 -22 65
-22 0 -23 -4 -23 -65z"/>
<path d="M4540 2404 c0 -97 1 -104 20 -104 17 0 20 7 20 38 0 37 2 39 32 40
35 1 68 31 68 62 0 36 -32 60 -87 64 l-53 3 0 -103z m90 56 c20 -13 2 -44 -29
-48 -18 -3 -21 2 -21 27 0 33 19 41 50 21z"/>
<path d="M5413 2484 c-25 -39 -30 -142 -8 -187 17 -36 64 -63 49 -29 -38 90
-41 159 -8 209 18 28 18 33 -1 33 -8 0 -22 -12 -32 -26z"/>
<path d="M5640 2507 c0 -2 7 -18 16 -36 31 -62 29 -111 -10 -203 -15 -34 31
-7 48 28 32 69 10 204 -36 212 -10 2 -18 2 -18 -1z"/>
<path d="M4710 2380 c0 -73 2 -80 20 -80 17 0 20 7 20 41 0 50 15 79 40 79 13
0 20 7 20 20 0 24 -22 26 -44 4 -15 -14 -17 -14 -22 0 -3 9 -12 16 -20 16 -11
0 -14 -18 -14 -80z"/>
<path d="M4859 2441 c-18 -14 -24 -29 -24 -61 0 -32 6 -47 24 -61 52 -42 121
-7 121 62 0 69 -69 102 -121 60z m70 -25 c17 -20 10 -67 -11 -80 -21 -13 -36
-1 -41 34 -8 49 26 78 52 46z"/>
<path d="M5015 2368 c0 -84 -2 -93 -20 -98 -35 -9 -28 -30 10 -30 47 0 55 20
55 129 0 88 -1 91 -22 91 -22 0 -23 -3 -23 -92z"/>
<path d="M5470 2457 c0 -1 13 -36 29 -77 24 -62 32 -75 51 -75 18 0 26 11 45
60 12 33 26 68 30 78 6 13 2 17 -16 17 -19 0 -27 -8 -37 -40 -6 -22 -12 -49
-12 -60 0 -32 -17 -23 -23 13 -10 58 -25 87 -47 87 -11 0 -20 -1 -20 -3z"/>
<path d="M4365 2275 c0 -61 1 -65 23 -65 21 0 22 4 22 65 0 61 -1 65 -22 65
-22 0 -23 -4 -23 -65z"/>
<path d="M5130 2239 c0 -78 11 -99 53 -99 18 0 38 5 45 12 9 9 12 9 12 0 0 -7
9 -12 20 -12 19 0 20 6 18 77 -3 70 -5 76 -25 79 -20 3 -22 -1 -25 -59 -3 -56
-5 -62 -25 -65 -25 -4 -25 -1 -27 77 -1 37 -4 44 -23 47 -22 4 -23 0 -23 -57z"/>
<path d="M4366 2110 c1 -33 5 -60 8 -60 3 0 13 0 21 0 12 0 15 13 15 60 0 56
-2 60 -22 60 -21 0 -23 -4 -22 -60z"/>
<path d="M2185 2031 c-3 -5 -2 -12 3 -15 5 -3 9 1 9 9 0 17 -3 19 -12 6z"/>
<path d="M4369 2002 c0 -4 -2 -33 -2 -64 -2 -54 -1 -58 21 -58 22 0 23 3 20
62 -2 49 -6 62 -20 64 -10 1 -18 -1 -19 -4z"/>
<path d="M4365 1775 c0 -61 1 -65 22 -65 22 0 23 4 23 65 0 61 -1 65 -22 65
-22 0 -23 -4 -23 -65z"/>
<path d="M4367 1608 c1 -56 4 -63 22 -66 19 -3 21 1 21 62 0 62 -1 66 -22 66
-22 0 -23 -4 -21 -62z"/>
<path d="M1616 1562 c-3 -5 1 -9 9 -9 8 0 12 4 9 9 -3 4 -7 8 -9 8 -2 0 -6 -4
-9 -8z"/>
<path d="M4365 1440 c0 -56 2 -60 23 -60 20 0 22 4 22 60 0 56 -2 60 -22 60
-21 0 -23 -4 -23 -60z"/>
<path d="M1745 1451 c-3 -5 -2 -12 3 -15 5 -3 9 1 9 9 0 17 -3 19 -12 6z"/>
<path d="M4370 1335 c-1 0 -2 -28 -3 -63 -2 -58 -1 -62 21 -62 20 0 22 4 22
63 0 56 -2 63 -20 63 -11 0 -20 0 -20 -1z"/>
<path d="M4365 1105 c0 -61 1 -65 23 -65 21 0 22 4 22 65 0 61 -1 65 -22 65
-22 0 -23 -4 -23 -65z"/>
<path d="M4431 1024 c0 -11 3 -14 6 -6 3 7 2 16 -1 19 -3 4 -6 -2 -5 -13z"/>
<path d="M1656 1014 c-37 -37 -34 -155 5 -187 27 -22 76 -17 96 9 34 45 22
163 -17 184 -28 15 -66 12 -84 -6z m75 -46 c7 -27 5 -28 -27 -28 -36 0 -41 9
-23 41 14 27 41 20 50 -13z m-2 -90 c-5 -18 -9 -34 -9 -35 0 -12 -32 1 -40 16
-19 37 -12 51 24 51 34 0 35 0 25 -32z"/>
<path d="M4367 938 c1 -56 4 -63 22 -66 19 -3 21 1 21 62 0 62 -1 66 -22 66
-22 0 -23 -4 -21 -62z"/>
<path d="M891 927 c-8 -10 -7 -14 2 -14 8 0 14 6 14 14 0 7 -1 13 -2 13 -2 0
-8 -6 -14 -13z"/>
<path d="M425 585 c-20 -19 -25 -34 -25 -74 0 -69 30 -104 87 -103 54 1 77 14
93 52 18 43 6 100 -25 128 -37 31 -98 30 -130 -3z m99 -21 c19 -18 22 -94 4
-112 -19 -19 -55 -14 -72 10 -22 31 -20 74 4 98 24 24 43 25 64 4z"/>
<path d="M2140 502 c0 -82 31 -114 84 -87 14 8 26 10 26 4 0 -5 8 -9 18 -9 15
0 18 10 19 75 1 73 1 75 -22 75 -22 0 -24 -4 -27 -57 -3 -51 -6 -58 -25 -61
-26 -4 -34 16 -29 76 3 38 1 42 -20 42 -22 0 -24 -4 -24 -58z"/>
</g>
</svg>
